<?xml version="1.0" encoding="UTF-8"?>
<!DOCTYPE svg PUBLIC "-//W3C//DTD SVG 1.1//EN" "http://www.w3.org/Graphics/SVG/1.1/DTD/svg11.dtd">
<!-- Creator: CorelDRAW X7 -->
<svg xmlns="http://www.w3.org/2000/svg" xml:space="preserve" width="200mm" height="200mm" version="1.1" style="shape-rendering:geometricPrecision; text-rendering:geometricPrecision; image-rendering:optimizeQuality; fill-rule:evenodd; clip-rule:evenodd"
viewBox="0 0 20000 20000"
 xmlns:xlink="http://www.w3.org/1999/xlink">
 <defs>
  <style type="text/css">
   <![CDATA[
    .fil1 {fill:#2A4479;fill-rule:nonzero}
    .fil2 {fill:#2B4479;fill-rule:nonzero}
    .fil0 {fill:#B0B0AF;fill-rule:nonzero}
   ]]>
  </style>
 </defs>
 <g id="Media_x0020_logo">
  <metadata id="CorelCorpID_0Corel-Layer"/>
  <g id="_974608088192">
   <g>
    <g>
     <polygon class="fil0" points="1081,7774 14011,2318 12304,12077 12586,12077 14373,1864 504,7717 6891,12077 7384,12077 "/>
    </g>
    <g>
     <polygon class="fil1" points="19015,5351 17838,12077 18214,12077 19496,4746 2123,12077 3076,12077 "/>
    </g>
    <g>
     <polygon class="fil0" points="7236,1899 13520,12077 13737,12077 7215,1513 2123,12077 2381,11969 "/>
    </g>
    <g>
     <polygon class="fil1" points="9676,1316 16320,12077 16864,12077 9624,350 4028,12077 4541,12077 "/>
    </g>
   </g>
   <path class="fil2" d="M3067 16303l-321 0 0 -1450c0,-11 1,-94 3,-248 2,-153 4,-275 4,-364l-7 0 -691 2062 -329 0 -691 -2059 -7 0c0,88 2,208 4,361 2,154 3,236 3,248l0 1450 -321 0 0 -2456 475 0 702 2077 6 0 698 -2077 472 0 0 2456zm4112 -1228c0,-193 -34,-365 -103,-516 -68,-151 -168,-269 -297,-355 -129,-85 -281,-128 -455,-128 -174,0 -326,43 -455,128 -129,86 -229,204 -297,355 -69,151 -103,323 -103,516 0,194 35,366 104,517 69,152 168,270 298,355 129,85 280,127 453,127 173,0 324,-42 453,-127 130,-85 229,-203 298,-355 69,-151 104,-323 104,-517zm342 1c0,144 -20,291 -61,440 -42,149 -109,288 -202,417 -94,129 -218,234 -374,315 -155,80 -342,120 -561,120 -217,0 -404,-40 -559,-120 -156,-81 -280,-186 -374,-316 -93,-131 -161,-270 -202,-418 -41,-148 -61,-294 -61,-438 0,-145 20,-291 61,-440 41,-147 109,-287 202,-418 94,-130 219,-236 375,-316 156,-80 342,-120 558,-120 218,0 405,40 561,120 157,80 281,185 374,315 93,129 160,269 202,418 41,149 61,296 61,441zm3702 755l0 -1984 321 0 0 2456 -372 0 -1249 -1984 -7 0 0 1984 -322 0 0 -2456 394 0 1228 1984 7 0zm2309 -1690l0 -294 1994 0 0 294 -831 0 0 2162 -332 0 0 -2162 -831 0zm5830 1868l0 294 -1814 0 0 -2456 1789 0 0 294 -1457 0 0 753 1345 0 0 294 -1345 0 0 821 1482 0z"/>
   <path class="fil0" d="M931 17754l-267 0 0 1847 175 0 0 -1647 5 0 608 1647 164 0 606 -1647 5 0 0 1647 174 0 0 -1847 -264 0 -595 1629 -6 0 -605 -1629zm3107 0l-1229 0 0 1847 1255 0 0 -149 -1080 0 0 -733 951 0 0 -149 -951 0 0 -667 1054 0 0 -149zm970 0l-631 0 0 1847 631 0c61,0 123,-2 182,-10 59,-5 118,-15 175,-33 53,-16 107,-39 159,-67 48,-28 95,-67 138,-116 44,-46 80,-97 108,-153 28,-54 49,-113 67,-175 18,-59 30,-121 38,-185 8,-64 10,-125 10,-187 0,-62 -5,-128 -12,-203 -11,-72 -26,-143 -49,-215 -23,-69 -57,-139 -95,-203 -39,-64 -90,-118 -151,-162 -44,-30 -88,-56 -131,-74 -47,-18 -93,-33 -141,-44 -49,-7 -98,-15 -147,-18 -48,-2 -100,-2 -151,-2zm-39 1698l-418 0 0 -1549 418 0c77,0 154,5 229,13 74,7 141,28 195,56 64,33 118,77 159,128 41,54 74,111 97,172 23,64 41,128 49,198 8,69 13,138 13,205 0,64 -5,128 -13,198 -10,69 -26,133 -49,195 -23,64 -56,120 -95,174 -38,54 -89,95 -151,126 -72,38 -141,61 -210,69 -70,10 -144,15 -224,15zm1496 -1698l-174 0 0 1847 174 0 0 -1847zm1232 0l-198 0 -726 1847 180 0 218 -580 841 0 213 580 180 0 -708 -1847zm-105 149l361 970 -723 0 362 -970zm4603 744l-790 0 0 149 624 0c-3,69 -8,136 -18,200 -13,64 -34,123 -62,182 -31,59 -67,110 -110,151 -44,41 -90,75 -139,100 -49,26 -100,44 -154,54 -54,13 -105,18 -154,18 -105,0 -200,-20 -282,-61 -85,-41 -154,-98 -210,-167 -59,-69 -103,-152 -131,-244 -31,-92 -46,-190 -46,-292 0,-131 13,-249 41,-360 25,-107 66,-200 123,-279 56,-77 128,-136 215,-180 88,-43 193,-64 313,-64 70,0 134,10 198,28 64,21 121,49 172,85 51,38 95,85 133,138 36,54 62,116 77,185l180 0c-21,-100 -54,-185 -100,-259 -46,-72 -103,-133 -169,-182 -70,-49 -144,-85 -229,-108 -85,-23 -177,-36 -274,-36 -147,0 -272,26 -378,75 -107,48 -197,118 -266,202 -72,88 -126,190 -159,306 -34,118 -52,243 -52,379 0,165 21,308 62,431 38,124 95,226 167,306 71,82 156,143 256,184 100,41 208,62 323,62 90,0 172,-8 244,-26 72,-18 136,-41 190,-74 54,-31 103,-69 146,-116 41,-43 77,-94 111,-148l0 315 148 0 0 -954zm419 954l174 0 0 -839 549 0c44,0 85,3 126,8 38,5 74,15 108,31 33,15 61,38 84,66 23,31 39,72 49,121 8,36 13,82 15,139 3,56 6,115 11,174 2,59 10,118 18,172 7,54 20,97 38,128l193 0 0 -18c-13,-7 -23,-20 -31,-38 -8,-16 -16,-39 -21,-67 -7,-28 -13,-67 -15,-113 -5,-46 -8,-105 -10,-174l-8 -149c-5,-51 -15,-100 -31,-146 -15,-47 -38,-88 -69,-123 -31,-36 -75,-65 -128,-83 105,-48 182,-105 231,-174 46,-69 69,-162 69,-277 0,-172 -54,-295 -162,-372 -108,-75 -264,-113 -467,-113l-723 0 0 1847zm718 -988l-544 0 0 -710 554 0c59,0 116,5 170,15 54,10 100,28 143,54 41,26 75,62 100,105 23,44 36,100 36,170 0,64 -13,120 -36,166 -23,47 -56,85 -97,113 -41,31 -90,54 -144,67 -56,13 -118,20 -182,20zm924 67c0,134 18,259 54,375 36,118 89,220 161,308 72,89 162,159 270,210 107,51 233,77 374,77 141,0 267,-26 375,-77 108,-51 197,-121 269,-210 72,-88 126,-190 164,-308 36,-116 54,-241 54,-375 0,-136 -18,-262 -54,-382 -38,-118 -92,-221 -164,-311 -74,-87 -164,-156 -272,-207 -110,-49 -236,-75 -379,-75 -139,0 -262,26 -367,77 -106,51 -195,121 -267,208 -72,90 -126,192 -162,310 -38,118 -56,244 -56,380zm862 821c-121,0 -226,-23 -311,-67 -87,-43 -159,-105 -213,-179 -56,-75 -97,-162 -123,-262 -28,-100 -41,-203 -41,-313 0,-108 13,-210 41,-310 26,-100 67,-188 123,-265 54,-74 126,-136 213,-182 85,-46 188,-69 306,-69 105,0 202,18 287,56 85,39 159,93 218,165 59,71 105,159 139,259 30,102 46,218 46,346 0,108 -13,211 -39,311 -28,100 -69,187 -123,261 -56,75 -128,136 -213,180 -87,46 -190,69 -310,69zm1383 -646l0 -1101 -175 0 0 1152c0,236 59,418 177,549 118,131 298,195 539,195 239,0 418,-64 539,-192 118,-126 177,-311 177,-552l0 -1152 -174 0 0 1101c0,110 -11,205 -29,284 -18,80 -48,147 -92,201 -44,53 -98,94 -167,120 -69,28 -154,41 -254,41 -190,0 -328,-51 -413,-151 -85,-100 -128,-267 -128,-495zm2342 -1101l-675 0 0 1847 175 0 0 -816 395 0c85,0 172,-7 257,-23 84,-15 159,-43 225,-82 67,-38 121,-90 165,-156 41,-67 61,-152 61,-254 0,-70 -7,-134 -25,-198 -18,-62 -52,-115 -95,-164 -47,-49 -108,-85 -185,-113 -80,-28 -177,-41 -298,-41zm-100 883l-400 0 0 -734 452 0c166,0 287,31 364,90 74,59 113,148 113,264 0,79 -13,141 -36,190 -26,48 -62,87 -105,115 -47,28 -103,49 -167,59 -64,10 -139,16 -221,16z"/>
  </g>
 </g>
</svg>
