<?xml version="1.0" encoding="UTF-8"?>
<!DOCTYPE svg PUBLIC "-//W3C//DTD SVG 1.1//EN" "http://www.w3.org/Graphics/SVG/1.1/DTD/svg11.dtd">
<!-- Creator: CorelDRAW X7 -->
<svg xmlns="http://www.w3.org/2000/svg" xml:space="preserve" width="200mm" height="30mm" version="1.1" style="shape-rendering:geometricPrecision; text-rendering:geometricPrecision; image-rendering:optimizeQuality; fill-rule:evenodd; clip-rule:evenodd"
viewBox="0 0 20000 3000"
 xmlns:xlink="http://www.w3.org/1999/xlink">
 <defs>
  <style type="text/css">
   <![CDATA[
    .fil0 {fill:white;fill-rule:nonzero}
   ]]>
  </style>
 </defs>
 <g id="Слой_x0020_1">
  <metadata id="CorelCorpID_0Corel-Layer"/>
  <path class="fil0" d="M1733 882l-138 0 -304 758c-25,64 -46,131 -70,197 -24,-67 -46,-134 -73,-200l-308 -755 -137 0 0 1059 97 0 0 -643c0,-108 -4,-216 -12,-324 21,65 43,131 70,195l317 772 91 0 312 -781c25,-63 49,-128 70,-192 -7,111 -12,222 -12,333l0 640 97 0 0 -1059zm898 -26c-297,0 -498,225 -498,555 0,332 199,555 497,555 299,0 501,-222 501,-552 0,-332 -204,-558 -500,-558zm-1 88c239,0 400,189 400,469 0,279 -159,465 -399,465 -239,0 -397,-186 -397,-470 0,-276 159,-464 396,-464zm1737 -62l-96 0 0 660c0,94 4,186 7,280 -42,-76 -89,-150 -138,-222l-496 -718 -111 0 0 1059 98 0 0 -684c0,-85 -2,-169 -8,-253 39,78 90,153 140,226l493 711 111 0 0 -1059zm1187 0l-845 0 0 86 372 0 0 973 101 0 0 -973 372 0 0 -86zm1077 0l-735 0 0 1059 741 0 0 -86 -640 0 0 -420 594 0 0 -85 -594 0 0 -382 634 0 0 -86zm1264 0l0 1059 101 0 0 -452 350 0c201,0 336,-103 336,-310 0,-198 -135,-297 -333,-297l-454 0zm101 86l332 0c152,0 253,67 253,219 0,157 -118,217 -263,217l-322 0 0 -436zm1076 -86l0 1059 101 0 0 -473 311 0c193,0 268,38 281,238 4,55 2,198 31,235l115 0c-48,-48 -48,-226 -51,-272 -9,-142 -52,-216 -186,-240 130,-31 207,-123 207,-262 0,-202 -143,-285 -330,-285l-479 0zm101 86l345 0c137,0 263,43 263,205 0,189 -159,214 -309,214l-299 0 0 -419zm1578 -112c-297,0 -498,225 -498,555 0,332 199,555 497,555 299,0 501,-222 501,-552 0,-332 -204,-558 -500,-558zm-1 88c239,0 400,189 400,469 0,279 -159,465 -399,465 -239,0 -397,-186 -397,-470 0,-276 159,-464 396,-464zm902 -62l0 1059 393 0c334,0 464,-253 464,-549 0,-299 -142,-510 -473,-510l-384 0zm102 86l282 0c244,0 372,164 372,430 0,242 -79,457 -388,457l-266 0 0 -887zm1978 -86l-101 0 0 632c0,219 -54,364 -305,364 -254,0 -318,-136 -318,-363l0 -633 -102 0 0 659c0,276 140,422 418,422 274,0 408,-147 408,-419l0 -662zm1339 653l-100 0c-22,198 -140,343 -352,343 -235,0 -389,-184 -389,-465 0,-281 156,-469 392,-469 172,0 302,98 334,256l101 0c-23,-216 -229,-344 -432,-344 -322,0 -494,259 -494,557 0,334 192,552 485,552 254,0 433,-168 455,-430zm1129 -653l-845 0 0 86 372 0 0 973 101 0 0 -973 372 0 0 -86zm450 0l-101 0 0 1059 101 0 0 -1059zm909 -26c-297,0 -498,225 -498,555 0,332 199,555 497,555 299,0 501,-222 501,-552 0,-332 -204,-558 -500,-558zm-1 88c239,0 400,189 400,469 0,279 -159,465 -399,465 -239,0 -397,-186 -397,-470 0,-276 159,-464 396,-464zm1737 -62l-97 0 0 660c0,94 5,186 8,280 -42,-76 -89,-150 -139,-222l-495 -718 -112 0 0 1059 99 0 0 -684c0,-85 -2,-169 -8,-253 39,78 90,153 140,226l493 711 111 0 0 -1059zm-18697 1194l18804 0 0 68 -18804 0 0 -68z"/>
 </g>
</svg>
