<?xml version="1.0" standalone="no"?>
<!DOCTYPE svg PUBLIC "-//W3C//DTD SVG 20010904//EN"
 "http://www.w3.org/TR/2001/REC-SVG-20010904/DTD/svg10.dtd">
<svg version="1.0" xmlns="http://www.w3.org/2000/svg"
 width="16.000000pt" height="16.000000pt" viewBox="0 0 16.000000 16.000000"
 preserveAspectRatio="xMidYMid meet">
<metadata>
Created by potrace 1.11, written by Peter Selinger 2001-2013
</metadata>
<g transform="translate(0.000000,16.000000) scale(0.001202,-0.001202)"
fill="#000000" stroke="none">
<path d="M6523 12572 c-23 -48 -76 -159 -119 -247 -42 -88 -214 -448 -381
-800 -168 -352 -314 -657 -325 -678 l-19 -39 -33 54 c-47 77 -135 220 -193
313 -27 44 -87 141 -133 215 -45 74 -122 198 -170 275 -48 77 -98 159 -111
182 -13 24 -26 43 -29 43 -6 0 -110 -212 -325 -660 -73 -151 -172 -356 -220
-455 -48 -99 -136 -281 -195 -405 -59 -124 -149 -310 -200 -415 -51 -104 -148
-307 -217 -450 -68 -143 -167 -348 -220 -457 l-96 -196 -51 -20 c-28 -12 -116
-48 -196 -82 -335 -143 -653 -277 -970 -410 -104 -43 -207 -87 -475 -200 -167
-71 -354 -150 -485 -205 -72 -30 -190 -80 -263 -111 -217 -92 -507 -214 -697
-294 -204 -85 -194 -80 -179 -95 8 -7 93 -66 189 -131 96 -65 267 -181 380
-259 113 -77 258 -176 323 -220 64 -44 216 -147 337 -230 121 -82 339 -231
485 -330 218 -149 263 -183 259 -199 -4 -10 -60 -129 -126 -265 -66 -135 -167
-343 -223 -461 -56 -118 -143 -298 -193 -400 l-90 -185 -63 -27 c-110 -46
-337 -143 -504 -213 -88 -37 -205 -86 -260 -110 -55 -23 -110 -46 -123 -50
-13 -4 -21 -9 -19 -12 3 -2 173 -4 379 -3 206 0 377 -2 381 -6 3 -3 -16 -51
-44 -105 -27 -55 -47 -99 -45 -99 2 0 53 21 112 46 60 25 159 66 219 91 61 25
116 50 124 56 10 8 119 14 355 17 l341 5 75 32 c41 17 92 39 113 47 l37 16
-16 -37 c-9 -21 -18 -44 -21 -51 -4 -9 84 -12 419 -12 l424 0 129 271 c77 163
137 276 149 284 12 7 46 22 77 35 l55 22 140 -95 c76 -52 278 -189 449 -306
l309 -211 560 0 c475 0 558 2 546 14 -8 7 -136 96 -284 196 -406 275 -501 340
-741 505 -121 83 -233 158 -248 168 -15 10 -25 22 -22 26 2 5 42 23 87 41 46
19 121 50 168 70 47 21 153 66 235 100 83 34 195 82 250 105 55 24 156 66 225
95 127 53 305 128 485 205 55 24 156 66 225 95 69 29 181 76 250 105 283 120
585 247 735 310 88 37 206 87 263 111 56 24 113 46 125 49 26 7 22 13 337
-500 68 -110 162 -263 210 -340 48 -77 92 -149 98 -160 8 -15 1 -70 -24 -215
-19 -107 -54 -310 -79 -450 -41 -240 -80 -456 -91 -508 l-4 -22 322 2 323 3
23 120 c40 213 43 225 52 220 4 -3 50 -74 101 -158 50 -83 99 -160 107 -169
14 -17 43 -18 349 -18 183 0 333 3 333 6 0 3 -8 18 -19 32 -10 15 -65 104
-123 197 -141 231 -337 547 -416 675 -36 58 -94 152 -129 209 l-63 104 29 166
c55 307 102 575 137 781 36 213 83 462 88 467 2 3 23 -31 216 -342 233 -378
289 -468 348 -565 36 -58 104 -168 152 -245 126 -205 333 -540 542 -877 45
-73 120 -196 168 -273 48 -77 113 -184 146 -237 l59 -97 435 -3 c239 -2 591
-2 781 0 l346 3 36 212 c20 117 62 354 92 527 30 173 78 446 106 605 28 160
72 414 99 565 66 374 142 808 200 1145 27 154 75 424 105 600 126 721 147 842
194 1115 28 157 54 305 60 330 9 40 16 250 8 250 -5 0 -300 -124 -660 -276
-215 -91 -505 -213 -697 -294 -63 -26 -176 -73 -250 -105 -74 -31 -175 -74
-225 -95 -49 -21 -150 -63 -222 -94 -73 -31 -192 -81 -263 -111 -72 -30 -190
-80 -263 -111 -222 -94 -514 -217 -697 -294 -63 -26 -176 -73 -250 -105 -214
-90 -323 -135 -329 -135 -4 0 -14 13 -24 29 -18 31 -25 -13 112 766 67 381
143 814 201 1150 27 154 72 411 100 570 28 160 72 418 99 575 27 157 54 305
60 330 19 81 18 82 -36 58 -27 -11 -106 -45 -178 -75 -142 -60 -239 -101 -445
-188 -74 -32 -191 -81 -260 -110 -69 -29 -186 -78 -260 -110 -207 -87 -314
-133 -440 -185 -63 -27 -180 -76 -260 -110 -225 -96 -270 -114 -274 -109 -1 2
-32 51 -68 109 -284 462 -477 773 -516 835 -17 28 -51 84 -76 125 -25 41 -137
224 -250 405 -113 182 -230 371 -261 422 -30 51 -59 94 -63 97 -4 2 -26 -35
-49 -82z m179 -1584 c25 -40 93 -152 153 -248 59 -96 137 -221 172 -278 36
-57 63 -105 61 -107 -4 -4 -123 -56 -323 -140 -88 -37 -189 -80 -225 -95 -36
-16 -99 -42 -140 -58 -41 -17 -100 -42 -130 -56 -68 -32 -76 -32 -95 -2 -15
22 -6 42 211 497 125 261 235 493 246 517 10 23 20 42 22 42 1 0 23 -33 48
-72z m-1596 -345 c15 -27 83 -137 151 -246 68 -109 123 -203 123 -209 0 -13
-317 -679 -330 -692 -5 -5 -62 -31 -127 -58 -65 -28 -158 -67 -208 -88 -217
-91 -359 -149 -362 -146 -3 3 159 344 374 786 55 113 153 316 218 453 65 136
122 247 126 247 4 0 20 -21 35 -47z m4034 -140 c0 -10 -7 -54 -16 -98 -14 -74
-43 -240 -158 -905 -51 -292 -97 -544 -101 -548 -2 -2 -56 84 -290 463 -146
238 -196 319 -324 524 -56 90 -98 167 -94 171 4 5 42 22 83 38 41 17 129 54
195 82 128 55 276 117 470 198 66 28 140 60 165 71 55 25 70 26 70 4z m-1674
-750 c26 -45 162 -267 244 -398 21 -33 67 -107 102 -165 77 -125 151 -245 318
-515 135 -218 216 -350 313 -507 35 -57 100 -162 145 -234 71 -114 80 -135 73
-160 -8 -31 0 -27 -341 -169 -58 -24 -170 -71 -250 -105 -80 -33 -174 -73
-209 -87 -74 -30 -61 -39 -139 87 -25 41 -86 140 -136 220 -49 80 -117 190
-151 245 -34 55 -102 165 -151 245 -50 80 -134 217 -189 305 -107 174 -194
315 -290 470 -34 55 -105 171 -159 258 -54 87 -99 164 -100 173 -1 15 51 40
324 154 191 80 367 154 455 193 44 19 87 35 97 36 9 1 27 -18 44 -46z m-1416
-640 c60 -99 271 -440 477 -773 49 -80 134 -217 188 -305 257 -417 374 -607
481 -777 30 -48 54 -91 54 -96 0 -5 -55 -32 -122 -60 -68 -28 -177 -74 -243
-102 -136 -58 -306 -130 -475 -200 -63 -27 -149 -63 -190 -80 -41 -18 -176
-75 -300 -127 -124 -52 -281 -119 -350 -148 -69 -29 -181 -76 -250 -105 -69
-29 -170 -71 -225 -95 -55 -24 -127 -54 -160 -68 -33 -14 -121 -51 -195 -82
-74 -32 -187 -79 -250 -105 -63 -27 -151 -64 -195 -83 -138 -59 -132 -64 -71
65 71 151 746 1566 829 1738 214 447 281 586 469 980 93 195 175 364 182 375
8 12 47 34 87 50 41 16 101 41 134 57 33 15 63 28 66 28 3 0 30 -39 59 -87z
m-1424 -515 c-14 -33 -223 -472 -521 -1093 -32 -66 -80 -167 -108 -225 -27
-58 -89 -186 -136 -285 -48 -99 -170 -354 -271 -567 -102 -214 -188 -388 -193
-388 -4 0 -58 35 -120 78 -61 42 -156 107 -209 142 -54 36 -97 70 -98 77 0 7
48 110 106 230 58 120 152 315 209 433 56 118 144 301 195 405 51 105 145 300
210 435 246 514 226 478 279 504 26 14 96 44 156 69 141 58 328 136 430 181
44 19 81 35 83 35 1 1 -4 -14 -12 -31z m7751 -80 c-44 -258 -179 -1026 -267
-1528 -28 -162 -71 -407 -95 -545 -107 -614 -149 -850 -200 -1145 -30 -173
-76 -436 -101 -585 -26 -148 -50 -274 -54 -278 -4 -5 -25 20 -45 55 -21 35
-77 126 -125 203 -48 77 -130 210 -182 295 -53 85 -114 184 -136 220 -67 108
-211 341 -367 595 -81 132 -187 303 -235 380 -48 77 -116 187 -152 245 -35 58
-109 177 -163 265 -55 88 -138 223 -185 300 -48 77 -130 210 -183 296 -54 86
-97 159 -97 162 0 3 51 26 113 52 61 26 141 60 177 75 36 15 135 57 220 93
279 117 613 258 740 312 69 29 181 76 250 105 69 29 184 77 255 107 189 81
314 134 450 191 66 28 179 75 250 106 72 31 132 56 134 56 2 0 1 -15 -2 -32z
m-9267 -547 c0 -8 -71 -157 -272 -571 -52 -107 -152 -315 -223 -462 -70 -148
-132 -268 -138 -268 -5 0 -96 60 -203 133 -280 190 -630 430 -693 473 l-54 37
54 25 c30 13 151 65 269 114 118 50 271 115 340 144 140 58 349 147 485 204
50 21 149 63 220 93 72 30 146 62 165 71 41 18 50 19 50 7z m5396 -1093 c-4
-18 -24 -133 -45 -256 -35 -201 -45 -244 -54 -231 -2 2 -29 47 -61 99 -33 52
-85 136 -117 187 -42 67 -55 94 -46 100 7 5 55 27 107 48 52 21 118 49 145 62
69 32 79 30 71 -9z m-5689 -1216 c70 -48 167 -114 216 -147 48 -32 87 -64 87
-70 0 -27 -33 -47 -160 -101 -74 -31 -197 -83 -273 -115 -76 -33 -140 -59
-143 -59 -2 0 -41 -16 -85 -36 -76 -35 -104 -39 -82 -12 9 12 105 210 254 526
27 56 51 102 53 102 3 0 62 -39 133 -88z"/>
<path d="M12708 3653 c12 -2 30 -2 40 0 9 3 -1 5 -23 4 -22 0 -30 -2 -17 -4z"/>
<path d="M12935 3650 c22 -5 53 -13 68 -19 16 -6 51 -11 78 -11 42 0 49 3 49
20 0 19 -6 20 -117 19 -89 -1 -108 -3 -78 -9z"/>
<path d="M4325 3304 c-226 -36 -410 -128 -556 -281 -163 -169 -250 -374 -279
-657 -38 -361 58 -674 277 -906 144 -153 297 -238 508 -281 78 -16 323 -16
400 0 316 66 557 256 691 547 134 290 132 736 -4 1027 -126 270 -345 455 -622
527 -65 17 -121 23 -235 25 -82 2 -163 1 -180 -1z m329 -254 c224 -57 400
-228 474 -460 62 -195 67 -470 11 -671 -61 -221 -211 -395 -404 -470 -199 -78
-458 -56 -625 52 -221 143 -340 390 -340 709 0 261 62 482 173 617 90 110 233
198 369 228 96 21 251 19 342 -5z"/>
<path d="M710 2240 l0 -1040 130 0 130 0 0 882 c0 485 2 879 5 876 2 -2 137
-398 299 -879 l294 -874 124 -3 125 -3 26 73 c14 40 148 428 297 862 149 435
273 792 275 795 3 2 5 -386 5 -862 l0 -867 130 0 130 0 0 1040 0 1040 -180 0
c-163 0 -180 -2 -189 -18 -8 -16 -462 -1338 -567 -1652 -21 -65 -40 -106 -42
-95 -2 11 -134 413 -293 893 l-291 872 -204 0 -204 0 0 -1040z"/>
<path d="M6277 3274 c-4 -4 -7 -472 -7 -1041 l0 -1033 135 0 135 0 0 813 0
812 541 -812 541 -813 144 0 144 0 -2 1038 -3 1037 -130 0 -130 0 -3 -815 -2
-815 -543 815 -542 815 -136 3 c-74 1 -138 -1 -142 -4z"/>
<path d="M8650 3155 l0 -125 338 -2 337 -3 3 -912 2 -913 140 0 140 0 0 915 0
915 340 0 340 0 0 125 0 125 -820 0 -820 0 0 -125z"/>
<path d="M11030 2240 l0 -1040 775 0 775 0 0 125 0 125 -635 0 -635 0 0 350 0
350 570 0 570 0 0 125 0 125 -570 0 -570 0 0 315 0 315 610 0 610 0 0 125 0
125 -750 0 -750 0 0 -1040z"/>
</g>
</svg>
