<?xml version="1.0" encoding="UTF-8"?>
<!DOCTYPE svg PUBLIC "-//W3C//DTD SVG 1.1//EN" "http://www.w3.org/Graphics/SVG/1.1/DTD/svg11.dtd">
<!-- Creator: CorelDRAW X7 -->
<svg xmlns="http://www.w3.org/2000/svg" xml:space="preserve" width="2362px" height="2362px" version="1.1" style="shape-rendering:geometricPrecision; text-rendering:geometricPrecision; image-rendering:optimizeQuality; fill-rule:evenodd; clip-rule:evenodd"
viewBox="0 0 2362 2362"
 xmlns:xlink="http://www.w3.org/1999/xlink">
 <defs>
  <style type="text/css">
   <![CDATA[
    .fil0 {fill:#A00062;fill-rule:nonzero}
    .fil1 {fill:#B0B0AE;fill-rule:nonzero}
   ]]>
  </style>
 </defs>
 <g id="Media_x0020_logo">
  <metadata id="CorelCorpID_0Corel-Layer"/>
  <g id="_992673354560">
   <path class="fil0" d="M366 1978l-38 0 0 -170c0,-2 0,-11 1,-29 0,-18 0,-32 0,-43l-1 0 -81 242 -38 0 -81 -242 -1 0c0,11 0,25 0,43 1,18 1,27 1,29l0 170 -38 0 0 -288 56 0 82 243 1 0 82 -243 55 0 0 288z"/>
   <path id="1" class="fil0" d="M852 1834c0,-23 -4,-43 -12,-61 -8,-17 -20,-31 -35,-41 -15,-10 -33,-15 -53,-15 -21,0 -39,5 -54,15 -15,10 -27,24 -35,41 -8,18 -12,38 -12,61 0,23 4,43 12,61 8,17 20,31 35,41 16,10 33,15 54,15 20,0 37,-5 53,-15 15,-10 27,-24 35,-41 8,-18 12,-38 12,-61zm40 0c0,17 -2,34 -7,52 -5,17 -13,33 -24,49 -11,15 -26,27 -44,36 -18,10 -40,15 -66,15 -25,0 -47,-5 -65,-15 -18,-9 -33,-21 -44,-37 -11,-15 -19,-31 -24,-49 -5,-17 -7,-34 -7,-51 0,-17 2,-34 7,-52 5,-17 13,-33 24,-49 11,-15 26,-27 44,-37 18,-9 40,-14 65,-14 26,0 48,5 66,14 19,10 33,22 44,37 11,15 19,32 24,49 5,18 7,35 7,52z"/>
   <polygon id="2" class="fil0" points="1330,1923 1330,1690 1367,1690 1367,1978 1324,1978 1177,1745 1176,1745 1176,1978 1139,1978 1139,1690 1185,1690 1329,1923 "/>
   <polygon id="3" class="fil0" points="1597,1724 1597,1690 1831,1690 1831,1724 1733,1724 1733,1978 1694,1978 1694,1724 "/>
   <polygon id="4" class="fil0" points="2277,1943 2277,1978 2064,1978 2064,1690 2274,1690 2274,1724 2103,1724 2103,1813 2261,1813 2261,1847 2103,1847 2103,1943 "/>
   <path class="fil0" d="M1183 391l-250 -391c0,0 21,521 -245,916 -278,413 -572,552 -572,552l481 0c0,0 244,-253 351,-639l235 -328 235 328c108,386 351,639 351,639l481 0c0,0 -293,-139 -571,-552 -266,-395 -245,-916 -245,-916l-251 391 0 0zm-209 327l0 0c50,-257 27,-474 27,-474l146 204 -173 270zm246 -270l0 0 146 -204c0,0 -23,217 26,474l-172 -270z"/>
   <polygon class="fil1" points="276,2193 238,2336 237,2336 197,2193 179,2193 138,2336 138,2336 100,2193 84,2193 129,2358 147,2358 188,2212 188,2212 229,2358 247,2358 293,2193 "/>
   <polygon id="1" class="fil1" points="433,2193 316,2193 316,2358 435,2358 435,2344 333,2344 333,2279 423,2279 423,2266 333,2266 333,2206 433,2206 "/>
   <path id="2" class="fil1" d="M524 2193l-59 0 0 165 59 0c6,0 12,0 18,-1 5,-1 11,-1 16,-3 5,-1 10,-4 15,-6 5,-3 9,-6 13,-10 5,-5 8,-9 11,-14 2,-5 4,-10 6,-16 2,-5 3,-10 4,-16 0,-6 1,-11 1,-17 0,-5 -1,-11 -2,-18 -1,-6 -2,-13 -4,-19 -2,-7 -6,-13 -9,-18 -4,-6 -9,-11 -15,-15 -4,-3 -8,-5 -12,-7 -4,-1 -9,-2 -13,-3 -5,-1 -10,-2 -14,-2 -5,0 -10,0 -15,0zm-3 151l-40 0 0 -138 40 0c7,0 14,1 21,1 8,1 14,3 19,5 6,3 11,7 15,12 4,5 7,10 9,15 2,6 4,12 5,18 1,6 1,12 1,18 0,6 0,12 -1,18 -1,6 -3,12 -5,17 -2,6 -5,11 -9,16 -3,5 -8,8 -14,11 -7,3 -13,5 -20,6 -7,1 -14,1 -21,1z"/>
   <path id="3" class="fil1" d="M700 2193l-60 0 0 165 60 0c6,0 12,0 17,-1 6,-1 11,-1 17,-3 5,-1 10,-4 15,-6 5,-3 9,-6 13,-10 4,-5 8,-9 10,-14 3,-5 5,-10 7,-16 1,-5 2,-10 3,-16 1,-6 1,-11 1,-17 0,-5 0,-11 -1,-18 -1,-6 -2,-13 -5,-19 -2,-7 -5,-13 -9,-18 -3,-6 -8,-11 -14,-15 -4,-3 -8,-5 -12,-7 -5,-1 -9,-2 -14,-3 -4,-1 -9,-2 -14,-2 -4,0 -9,0 -14,0zm-4 151l-39 0 0 -138 39 0c8,0 15,1 22,1 7,1 13,3 19,5 6,3 11,7 15,12 3,5 7,10 9,15 2,6 4,12 4,18 1,6 2,12 2,18 0,6 -1,12 -2,18 -1,6 -2,12 -4,17 -2,6 -6,11 -9,16 -4,5 -9,8 -15,11 -6,3 -13,5 -19,6 -7,1 -14,1 -22,1z"/>
   <polygon id="4" class="fil1" points="838,2193 822,2193 822,2358 838,2358 "/>
   <polygon id="5" class="fil1" points="899,2358 899,2214 900,2214 1001,2358 1020,2358 1020,2193 1003,2193 1003,2337 1003,2337 902,2193 883,2193 883,2358 "/>
   <path id="6" class="fil1" d="M1208 2273l-75 0 0 13 59 0c0,6 0,12 -1,18 -1,5 -3,11 -6,16 -3,5 -6,10 -11,13 -4,4 -8,7 -13,9 -4,3 -9,4 -14,5 -5,1 -10,2 -15,2 -10,0 -19,-2 -27,-6 -8,-3 -14,-8 -20,-15 -5,-6 -9,-13 -12,-21 -3,-9 -4,-17 -4,-26 0,-12 1,-23 4,-33 2,-9 6,-17 11,-25 6,-6 12,-12 21,-16 8,-3 18,-5 29,-5 7,0 13,1 19,2 6,2 11,5 16,8 5,3 9,7 13,12 3,5 6,10 7,17l17 0c-2,-9 -5,-17 -9,-23 -5,-7 -10,-12 -16,-17 -7,-4 -14,-7 -22,-9 -8,-2 -17,-4 -26,-4 -14,0 -26,3 -36,7 -10,4 -18,11 -25,18 -7,8 -12,17 -15,27 -3,11 -5,22 -5,34 0,15 2,28 6,39 4,11 9,20 16,27 7,7 15,13 24,17 10,3 20,5 31,5 8,0 16,-1 23,-2 7,-2 13,-4 18,-7 5,-3 10,-6 14,-10 4,-4 7,-9 10,-13l0 28 14 0 0 -85z"/>
   <path id="7" class="fil1" d="M1415 2315l-44 -49c4,-2 9,-5 13,-8 4,-2 8,-5 11,-8 3,-3 6,-7 8,-11 1,-4 2,-9 2,-14 0,-5 -1,-9 -2,-13 -2,-4 -5,-7 -8,-10 -3,-3 -7,-5 -12,-7 -4,-1 -9,-2 -15,-2 -5,0 -10,0 -15,2 -4,1 -9,3 -12,6 -4,3 -7,6 -9,10 -2,4 -3,9 -3,14 0,7 2,14 6,20 4,6 8,12 13,17 -6,2 -11,5 -16,8 -5,4 -10,8 -13,12 -4,4 -7,9 -10,14 -2,5 -3,11 -3,17 0,7 1,14 4,20 3,6 7,11 12,16 5,4 11,7 17,10 7,2 14,3 22,3 11,0 22,-2 30,-5 9,-4 17,-10 25,-19l17 20 20 0 -29 -32c5,-6 8,-13 9,-21 2,-7 3,-14 3,-22l-14 0c0,6 -1,11 -1,17 -1,5 -3,10 -6,15zm-27 -81c-3,5 -6,9 -11,13 -5,3 -10,6 -15,9 -2,-2 -3,-4 -5,-7 -3,-2 -5,-5 -6,-8 -2,-2 -4,-5 -5,-8 -1,-3 -2,-6 -2,-8 0,-3 1,-6 2,-8 1,-3 3,-5 5,-7 2,-1 5,-3 8,-3 2,-1 5,-2 8,-2 5,0 9,1 12,3 3,2 6,4 8,7 1,3 3,6 3,9 0,4 -1,7 -2,10zm-31 38l49 56c-5,6 -12,12 -19,16 -7,4 -16,6 -25,6 -6,0 -11,-1 -16,-3 -5,-1 -9,-4 -12,-7 -4,-3 -6,-7 -8,-11 -3,-4 -3,-9 -3,-15 0,-4 0,-8 2,-13 2,-4 4,-8 7,-12 3,-3 7,-7 11,-10 4,-3 9,-5 14,-7z"/>
   <polygon id="8" class="fil1" points="1662,2193 1545,2193 1545,2358 1664,2358 1664,2344 1562,2344 1562,2279 1652,2279 1652,2266 1562,2266 1562,2206 1662,2206 "/>
   <polygon id="9" class="fil1" points="1749,2339 1696,2193 1679,2193 1740,2358 1758,2358 1819,2193 1801,2193 "/>
   <polygon id="10" class="fil1" points="1959,2193 1843,2193 1843,2358 1962,2358 1962,2344 1859,2344 1859,2279 1949,2279 1949,2266 1859,2266 1859,2206 1959,2206 "/>
   <polygon id="11" class="fil1" points="2007,2358 2007,2214 2008,2214 2108,2358 2128,2358 2128,2193 2111,2193 2111,2337 2111,2337 2009,2193 1991,2193 1991,2358 "/>
   <polygon id="12" class="fil1" points="2278,2206 2278,2193 2151,2193 2151,2206 2206,2206 2206,2358 2223,2358 2223,2206 "/>
  </g>
 </g>
</svg>
