<?xml version="1.0" encoding="UTF-8"?>
<!DOCTYPE svg PUBLIC "-//W3C//DTD SVG 1.1//EN" "http://www.w3.org/Graphics/SVG/1.1/DTD/svg11.dtd">
<!-- Creator: CorelDRAW X7 -->
<svg xmlns="http://www.w3.org/2000/svg" xml:space="preserve" width="200mm" height="200mm" version="1.1" style="shape-rendering:geometricPrecision; text-rendering:geometricPrecision; image-rendering:optimizeQuality; fill-rule:evenodd; clip-rule:evenodd"
viewBox="0 0 20000 20000"
 xmlns:xlink="http://www.w3.org/1999/xlink">
 <defs>
  <style type="text/css">
   <![CDATA[
    .fil0 {fill:#A00062;fill-rule:nonzero}
    .fil1 {fill:#B0B0AE;fill-rule:nonzero}
   ]]>
  </style>
 </defs>
 <g id="Слой_x0020_1">
  <metadata id="CorelCorpID_0Corel-Layer"/>
  <g id="_1029368213312">
   <path class="fil0" d="M3451 16355l-302 0 0 -1361c0,-11 1,-88 3,-232 2,-145 3,-259 3,-342l-6 0 -648 1935 -309 0 -648 -1932 -6 0c0,82 1,195 3,339 2,144 3,221 3,232l0 1361 -302 0 0 -2305 447 0 658 1949 6 0 655 -1949 443 0 0 2305zm3886 -1152c0,-182 -32,-343 -97,-485 -64,-142 -157,-252 -278,-333 -122,-79 -264,-120 -427,-120 -163,0 -306,41 -427,120 -121,81 -214,191 -279,333 -64,142 -96,303 -96,485 0,181 32,342 97,485 65,142 158,253 280,333 121,79 263,119 425,119 162,0 304,-40 425,-119 122,-80 215,-191 280,-333 65,-143 97,-304 97,-485zm321 0c0,135 -19,273 -58,413 -39,140 -102,270 -189,392 -88,121 -204,219 -350,294 -146,76 -322,114 -527,114 -204,0 -379,-38 -524,-114 -146,-75 -263,-174 -351,-296 -88,-122 -152,-253 -190,-391 -38,-140 -57,-277 -57,-412 0,-136 19,-273 57,-412 38,-139 102,-270 190,-392 88,-123 205,-222 351,-297 147,-75 321,-113 524,-113 204,0 380,38 526,113 147,75 264,174 352,295 87,121 149,253 188,392 39,140 58,278 58,414zm3502 709l0 -1862 301 0 0 2305 -349 0 -1171 -1862 -7 0 0 1862 -302 0 0 -2305 369 0 1152 1862 7 0zm2137 -1586l0 -276 1871 0 0 276 -779 0 0 2029 -312 0 0 -2029 -780 0zm5440 1753l0 276 -1701 0 0 -2305 1678 0 0 276 -1366 0 0 707 1261 0 0 276 -1261 0 0 770 1389 0z"/>
   <path class="fil0" d="M9990 3663l-2004 -3133c0,0 166,4173 -1958,7326 -2229,3309 -4575,4423 -4575,4423l3849 0c0,0 1948,-2026 2808,-5115l1880 -2626 1880 2626c860,3089 2808,5115 2808,5115l3849 0c0,0 -2347,-1114 -4575,-4423 -2124,-3153 -1958,-7326 -1958,-7326l-2004 3133 0 0zm-1671 2613l0 0c398,-2058 210,-3796 210,-3796l1171 1636 -1381 2160zm1960 -2160l0 0 1172 -1636c0,0 -188,1738 210,3796l-1382 -2160z"/>
   <path class="fil1" d="M2863 18034l-324 1213 -4 0 -338 -1213 -157 0 -344 1213 -4 0 -320 -1213 -140 0 384 1399 154 0 345 -1236 4 0 344 1236 155 0 389 -1399 -144 0zm1327 0l-987 0 0 1399 1008 0 0 -112 -868 0 0 -556 765 0 0 -113 -765 0 0 -505 847 0 0 -113zm779 0l-507 0 0 1399 507 0c50,0 99,-2 147,-7 47,-4 95,-12 140,-26 43,-11 87,-29 128,-50 39,-22 76,-51 111,-88 35,-35 64,-74 87,-116 22,-41 39,-86 53,-132 15,-45 25,-92 31,-140 6,-49 8,-96 8,-142 0,-47 -4,-97 -10,-154 -8,-54 -21,-109 -39,-163 -19,-52 -45,-105 -76,-153 -31,-49 -72,-90 -122,-123 -35,-23 -70,-43 -105,-56 -37,-14 -74,-26 -113,-33 -40,-6 -79,-12 -118,-14 -39,-2 -80,-2 -122,-2zm-30 1287l-336 0 0 -1174 336 0c61,0 123,4 183,10 60,5 113,21 157,42 51,26 94,59 127,97 33,41 60,84 79,131 18,48 33,97 39,149 6,53 10,105 10,156 0,48 -4,97 -10,149 -8,53 -21,101 -39,148 -19,49 -46,91 -77,132 -30,41 -72,72 -121,95 -58,30 -113,47 -169,53 -56,8 -116,12 -179,12zm1519 -1287l-507 0 0 1399 507 0c49,0 99,-2 146,-7 47,-4 95,-12 140,-26 43,-11 87,-29 128,-50 39,-22 76,-51 111,-88 35,-35 64,-74 87,-116 23,-41 39,-86 53,-132 15,-45 25,-92 31,-140 7,-49 9,-96 9,-142 0,-47 -4,-97 -11,-154 -8,-54 -20,-109 -39,-163 -18,-52 -45,-105 -76,-153 -31,-49 -72,-90 -122,-123 -35,-23 -70,-43 -105,-56 -37,-14 -74,-26 -113,-33 -39,-6 -79,-12 -118,-14 -39,-2 -80,-2 -121,-2zm-31 1287l-336 0 0 -1174 336 0c62,0 123,4 183,10 60,5 114,21 157,42 51,26 95,59 128,97 33,41 59,84 78,131 19,48 33,97 39,149 6,53 10,105 10,156 0,48 -4,97 -10,149 -8,53 -20,101 -39,148 -19,49 -45,91 -76,132 -31,41 -72,72 -122,95 -58,30 -113,47 -169,53 -56,8 -115,12 -179,12zm1201 -1287l-140 0 0 1399 140 0 0 -1399zm520 1399l0 -1220 4 0 853 1220 163 0 0 -1399 -140 0 0 1222 -4 0 -858 -1222 -158 0 0 1399 140 0zm2618 -723l-635 0 0 113 501 0c-2,53 -6,103 -15,152 -10,48 -26,93 -49,138 -25,44 -54,83 -89,114 -35,31 -72,57 -111,76 -39,20 -80,33 -124,41 -43,10 -84,13 -123,13 -85,0 -161,-15 -227,-46 -68,-31 -124,-74 -169,-126 -48,-53 -83,-115 -105,-185 -25,-70 -37,-144 -37,-222 0,-99 10,-188 33,-272 20,-81 53,-151 99,-211 45,-59 103,-103 173,-136 70,-34 154,-49 251,-49 56,0 107,8 159,21 51,16 97,37 138,64 41,30 76,65 107,105 29,41 50,88 62,140l144 0c-16,-76 -43,-140 -80,-196 -37,-54 -83,-101 -136,-138 -56,-37 -116,-64 -184,-82 -68,-17 -142,-27 -220,-27 -118,0 -219,20 -303,57 -87,37 -159,89 -215,153 -57,66 -101,144 -127,231 -27,90 -42,185 -42,288 0,124 17,233 50,326 31,94 76,171 134,232 58,62 126,108 206,140 80,31 167,46 260,46 72,0 138,-6 196,-19 57,-14 109,-31 152,-57 43,-23 83,-52 118,-87 33,-33 61,-72 88,-113l0 239 120 0 0 -723zm2176 0l-634 0 0 113 500 0c-2,53 -6,103 -14,152 -10,48 -27,93 -49,138 -25,44 -54,83 -89,114 -35,31 -72,57 -111,76 -40,20 -81,33 -124,41 -43,10 -85,13 -124,13 -84,0 -160,-15 -226,-46 -68,-31 -124,-74 -169,-126 -48,-53 -83,-115 -106,-185 -24,-70 -37,-144 -37,-222 0,-99 11,-188 33,-272 21,-81 54,-151 99,-211 46,-59 103,-103 173,-136 70,-34 155,-49 252,-49 56,0 107,8 159,21 51,16 96,37 138,64 41,30 76,65 107,105 29,41 49,88 62,140l144 0c-17,-76 -43,-140 -80,-196 -38,-54 -83,-101 -136,-138 -56,-37 -116,-64 -184,-82 -68,-17 -142,-27 -220,-27 -118,0 -219,20 -303,57 -87,37 -159,89 -215,153 -58,66 -101,144 -128,231 -26,90 -41,185 -41,288 0,124 17,233 50,326 31,94 76,171 134,232 57,62 125,108 206,140 80,31 167,46 259,46 73,0 139,-6 196,-19 58,-14 110,-31 153,-57 43,-23 82,-52 117,-87 33,-33 62,-72 89,-113l0 239 119 0 0 -723zm336 723l141 0 0 -635 441 0c35,0 68,2 101,6 31,4 60,11 86,23 27,12 50,29 68,51 19,23 31,54 40,91 6,27 10,62 12,105 2,43 4,87 8,132 2,45 8,89 15,130 6,41 16,74 30,97l155 0 0 -13c-10,-6 -18,-16 -25,-29 -6,-12 -12,-30 -16,-51 -6,-21 -10,-51 -13,-86 -4,-34 -6,-79 -8,-132l-6 -112c-4,-39 -12,-76 -25,-111 -12,-35 -31,-66 -55,-93 -25,-28 -60,-49 -103,-63 84,-36 146,-79 185,-132 37,-52 56,-122 56,-210 0,-130 -44,-223 -130,-281 -87,-57 -212,-86 -375,-86l-582 0 0 1399zm578 -748l-437 0 0 -538 445 0c47,0 93,4 136,12 43,7 80,21 115,40 33,20 60,47 81,80 18,33 29,76 29,128 0,49 -11,92 -29,127 -19,35 -46,64 -79,85 -33,23 -72,41 -115,51 -45,9 -95,15 -146,15zm742 51c0,101 14,196 43,283 29,90 72,167 130,234 58,68 130,120 216,159 87,39 188,58 301,58 114,0 215,-19 301,-58 87,-39 159,-91 217,-159 57,-67 101,-144 132,-234 28,-87 43,-182 43,-283 0,-103 -15,-199 -43,-290 -31,-89 -75,-167 -132,-235 -60,-66 -132,-119 -219,-157 -89,-37 -190,-57 -305,-57 -111,0 -210,20 -295,59 -84,38 -156,91 -214,157 -58,68 -101,146 -130,235 -31,89 -45,185 -45,288zm692 621c-97,0 -181,-17 -249,-50 -70,-33 -128,-80 -171,-136 -46,-56 -79,-122 -99,-198 -23,-76 -33,-154 -33,-237 0,-82 10,-160 33,-235 20,-76 53,-142 99,-201 43,-56 101,-103 171,-138 68,-35 150,-52 245,-52 85,0 163,14 231,43 68,29 128,70 175,124 48,54 85,121 112,196 24,78 37,165 37,263 0,81 -11,159 -31,235 -23,76 -56,142 -99,198 -46,56 -103,103 -171,136 -70,35 -153,52 -250,52zm1111 -489l0 -834 -140 0 0 873c0,178 48,316 142,416 95,99 239,147 433,147 192,0 336,-48 433,-146 95,-95 142,-235 142,-417l0 -873 -140 0 0 834c0,83 -8,155 -23,215 -14,61 -39,111 -74,152 -35,41 -78,72 -134,91 -55,22 -123,31 -204,31 -152,0 -264,-38 -332,-114 -68,-76 -103,-202 -103,-375zm1882 -834l-542 0 0 1399 140 0 0 -618 318 0c68,0 138,-6 206,-17 68,-12 128,-33 181,-62 54,-29 97,-68 132,-119 33,-50 50,-115 50,-192 0,-53 -7,-101 -21,-150 -14,-47 -41,-87 -76,-124 -37,-37 -87,-64 -149,-86 -64,-21 -142,-31 -239,-31zm-80 669l-322 0 0 -556 363 0c134,0 231,23 293,68 60,45 90,113 90,200 0,60 -10,107 -28,144 -21,37 -50,66 -85,87 -37,22 -82,37 -134,45 -51,8 -111,12 -177,12z"/>
  </g>
 </g>
</svg>
